<?xml version="1.0" encoding="UTF-8"?>
<svg id="Calque_1" data-name="Calque 1" xmlns="http://www.w3.org/2000/svg" viewBox="0 0 191.88 81.41">
  <defs>
    <style>
      .cls-1 {
        fill: #d0ddff;
      }

      .cls-2 {
        fill: #3d1900;
      }
    </style>
  </defs>
  <path class="cls-2" d="M186.53,48.93c3.47-3.77,4.79-8.54,3.3-12.86-1.64-4.74-6.45-7.93-11.98-7.93-.4,0-.79.02-1.19.05-.19-1.24-.5-2.5-.98-3.75-2.13-5.59-7.93-9.66-13.79-9.66-3.04,0-5.81,1.06-8.01,3.06-2.59,2.36-4.03,5.65-4.23,9.56-1.08-.17-2.18-.26-3.3-.26-1.28,0-2.54.12-3.77.36-3.86.74-7.53,2.52-10.79,5.17-3.61-3.29-8.62-5.3-14.09-5.3-1.81,0-3.59.24-5.29.71-4.71,1.31-8.98,4.13-12.46,8.14-2.36-1.91-5.2-3.22-8.29-3.64-.73-.1-1.46-.15-2.2-.15-3.62,0-7.11,1.2-10,3.23-1.47-1.22-3.11-2.19-4.86-2.86-1.82-.7-3.74-1.06-5.73-1.06-.69,0-1.38.05-2.05.13.17-.24.33-.49.49-.73,4.69-7.57,2.9-18.15-4.16-24.61C58.56,2.31,52.12,0,45.01,0c-1.26,0-2.53.07-3.8.22-11.8,1.36-22.62,8.7-28.24,19.16-3.37,6.26-3.72,13.72-.93,19.94,1.13,2.54,2.76,4.9,4.79,6.98-.51-.12-1.04-.22-1.58-.29-.65-.08-1.3-.13-1.93-.13-3.79,0-7.25,1.48-9.75,4.18C.99,52.86-.27,56.61.05,60.63c.5,6.46,4.84,12.58,11.59,16.36,4.99,2.8,10.7,4.28,16.53,4.28,3.07,0,6.09-.41,9-1.22,3.93-1.1,7.62-2.93,10.87-5.33,2.52,2.87,6.18,4.6,9.96,4.6,1.79,0,3.5-.39,5.08-1.15,1.96-.95,3.59-2.38,4.81-4.19.76.65,1.6,1.21,2.49,1.67,1.9.99,4.06,1.52,6.27,1.52,3.65,0,7.13-1.44,9.57-3.91.23.3.47.6.72.88,2.65,3.04,6.72,4.86,10.88,4.86,1.87,0,3.65-.36,5.23-1.05,2.83,1.23,5.94,1.87,9.23,1.87,5.33,0,10.44-1.71,14.5-4.66,3.59,2.86,8.29,4.54,13.36,4.54,1.6,0,3.18-.18,4.7-.53,2.78-.64,5.46-1.8,7.95-3.42,1.41,2.08,3.33,3.72,5.57,4.69,1.53.66,3.17.99,4.86.99,4.33,0,8.63-2.23,11.24-5.82.87-1.2,1.56-2.53,2.07-3.95.56.06,1.13.08,1.71.08.21,0,.41,0,.63,0,6.01-.23,11.2-4.08,12.62-9.37,1.32-4.92-.75-10.16-4.96-13.41Z"/>
  <path class="cls-1" d="M180.52,53.09c-2.95-1.22-6.27-.97-9.45-.69,1.79-2.85,5.19-4.14,8.04-5.93,2.85-1.79,5.51-5.04,4.41-8.23-1-2.89-4.75-4-7.68-3.14-2.93.86-5.21,3.12-7.36,5.29,1.32-4.44,2.61-9.26.97-13.58-1.64-4.32-7.64-7.15-11.06-4.04-2.31,2.1-2.36,5.71-1.72,8.77.64,3.06,1.78,6.14,1.23,9.21-2.14-5.19-8.53-7.78-14.05-6.71-5.52,1.06-10.09,5.09-13.14,9.81-.95-7.1-9.59-11.27-16.5-9.35-6.91,1.91-11.82,8.22-14.37,14.91-.08-4.96-4.15-9.56-9.08-10.24-4.92-.68-10.08,2.64-11.51,7.39-1.26-3.31-3.73-6.28-7.04-7.56-3.31-1.27-7.46-.55-9.72,2.18-1.48-2.51-4.91-3.67-7.61-2.57-2.7,1.1-4.34,4.32-3.65,7.15-3.06-2.92-6.73-5.19-10.7-6.62-3.27-1.19-7.26-2.27-8.38-5.56-1.03-3.01,1.1-6.26,3.68-8.12,3.92-2.82,10.26-3.28,12.96.73.75,1.11,1.14,2.45,1.98,3.49,2.72,3.35,8.6,1.59,10.87-2.08,3.13-5.05,1.39-12.15-3-16.17-4.39-4.01-10.76-5.27-16.67-4.59-9.62,1.11-18.54,7.16-23.12,15.69-2.29,4.26-2.7,9.63-.72,14.06,1.29,2.88,3.42,5.33,5.96,7.2,1.31.96,2.74,1.77,4.19,2.5,1.4.7,3.04,1.17,4.36,2,1.91,1.21,4.2,3.31,4.47,5.68.34,3.06-2.84,5.6-5.93,5.7-3.08.1-5.93-1.5-8.53-3.17-2.59-1.66-5.24-3.48-8.29-3.89-4.7-.62-8.03,2.89-7.67,7.48.37,4.77,4.21,8.83,8.2,11.07,6.15,3.45,13.67,4.35,20.46,2.44,6.79-1.9,12.75-6.58,16.2-12.72-.76,2.88-.71,6.12.9,8.62,1.6,2.51,5.04,3.93,7.72,2.64,2.72-1.31,3.71-4.74,3.65-7.76-.06-3.02-.86-6.04-.43-9.03.25-1.8,1.26-3.79,3.06-4.04,2.14-.3,3.75,2.12,3.81,4.28.05,2.16-.84,4.23-.97,6.39-.18,3.09,1.43,6.31,4.18,7.74,2.75,1.43,6.5.8,8.42-1.64,3.09-3.94.68-10.27,3.6-14.33.3-.41.66-.8,1.14-.99,1.14-.45,2.43.51,2.83,1.66.4,1.15.18,2.42.02,3.63-.54,4.07-.21,8.59,2.49,11.68s8.37,3.65,10.64.23c7.54,5.86,20.09,3.23,24.64-5.16,2.16,6.17,9.73,9.3,16.1,7.83,6.37-1.46,11.4-6.57,14.41-12.37-.6,2.54-1.2,5.16-.89,7.75.31,2.6,1.72,5.22,4.13,6.25,2.8,1.21,6.26-.15,8.05-2.61,1.71-2.35,2.08-5.45,1.63-8.33-.02-.15-.05-.29-.08-.43,2.54,1.14,5.22,2.24,8,2.13,2.78-.11,5.7-1.74,6.43-4.43.83-3.08-1.56-6.29-4.51-7.52ZM118.55,60.55c-.65.3-1.4.47-2.26.5-5.76.22-5.76-6.27-3.68-9.94,1.4-2.47,5.88-4.64,8.32-2.35.55.51.88,1.23,1.05,1.96.76,3.33.05,8.26-3.42,9.82ZM150.29,50.61c-.15,1.25-.48,2.48-.98,3.64-.52,1.22-1.21,2.36-2.05,3.37-1.28,1.53-3.66,3.5-5.82,2.71-2.75-1-2.52-4.85-1.9-7.13.78-2.84,2.77-5.36,5.43-6.66,1.25-.61,2.83-.94,3.99-.16,1.3.86,1.51,2.68,1.32,4.23Z"/>
</svg>